# xmcd
#
# Track frame offsets: 
#        182
#        16225
#        32902
#        52275
#        65337
#        79187
#        96240
#        107985
#        122390
#        141425
#        153515
#        163307
#        179630
#        193747
#        207965
#        225987
#        240122
#        254730
#        269877
#        283927
#        303647
#
# Disc length: 4247 seconds
#
# Revision: 2
# Processed by: cddbd v1.5.2PL0 Copyright (c) Steve Scherf et al.
# Submitted via: ExactAudioCopy v0.95b2
#
DISCID=42109515
DTITLE=Jerry Lee Lewis - The Complete Palomino Club Recordings Disc 1
DYEAR=1900
DGENRE=Oldies
TTITLE0=You Win Again
TTITLE1=What Made Milwaukee Famous
TTITLE2=What'd I Say
TTITLE3=Meat Man
TTITLE4=Another Place, Another Time
TTITLE5=I Can't Stop Loving You
TTITLE6=Your Cheatin' Heart
TTITLE7=Big Legged Woman
TTITLE8=Whole Lotta Shakin' Goin' On
TTITLE9=Great Balls Of Fire
TTITLE10=Rockin' My Life Away
TTITLE11=Harbor Lights
TTITLE12=Bottles And Barstools
TTITLE13=You Belong To Me
TTITLE14=Who's Gonna Play This Old Piano
TTITLE15=Careless Hands
TTITLE16=Trouble In Mind
TTITLE17=Who Will The Next Fool Be
TTITLE18=Touching Home
TTITLE19=More To Love Than This
TTITLE20=Cold Cold Heart
EXTD=
EXTT0=
EXTT1=
EXTT2=
EXTT3=
EXTT4=
EXTT5=
EXTT6=
EXTT7=
EXTT8=
EXTT9=
EXTT10=
EXTT11=
EXTT12=
EXTT13=
EXTT14=
EXTT15=
EXTT16=
EXTT17=
EXTT18=
EXTT19=
EXTT20=
PLAYORDER=
